<?xml version="1.0" encoding="UTF-8"?>
<svg xmlns="http://www.w3.org/2000/svg" id="Icons" viewBox="0 0 60 60" width="512" height="512"><path d="M53.76,42.5l3.98,1.62a2.033,2.033,0,0,1,0,3.76L30.76,58.85a2,2,0,0,1-1.52,0L2.26,47.88a2.033,2.033,0,0,1,0-3.76L6.24,42.5Z" fill="#4580c6"/><path d="M53.76,35.5l3.98,1.62a2.033,2.033,0,0,1,0,3.76L30.76,51.85a2,2,0,0,1-1.52,0L2.26,40.88a2.033,2.033,0,0,1,0-3.76L6.24,35.5Z" fill="#38689b"/><path d="M44.85,24.88l12.89,5.24a2.033,2.033,0,0,1,0,3.76L30.76,44.85a2,2,0,0,1-1.52,0L2.26,33.88a2.033,2.033,0,0,1,0-3.76l12.89-5.24Z" fill="#4580c6"/><circle cx="30" cy="20" r="12" fill="#c4ddf0"/><path d="M48.93,18.37a1.107,1.107,0,0,0-.7-.91l-3.06-1.22a15.376,15.376,0,0,0-1.78-4.3l1.29-3.03a1.073,1.073,0,0,0-.15-1.14c-.34-.42-.71-.82-1.09-1.21s-.79-.75-1.21-1.09a1.073,1.073,0,0,0-1.14-.15L38.06,6.61a15.376,15.376,0,0,0-4.3-1.78L32.54,1.77a1.107,1.107,0,0,0-.91-.7C31.09,1.02,30.54,1,30,1s-1.09.02-1.63.07a1.107,1.107,0,0,0-.91.7L26.24,4.83a15.376,15.376,0,0,0-4.3,1.78L18.91,5.32a1.073,1.073,0,0,0-1.14.15c-.42.34-.82.71-1.21,1.09s-.75.79-1.09,1.21a1.073,1.073,0,0,0-.15,1.14l1.29,3.03a15.376,15.376,0,0,0-1.78,4.3l-3.06,1.22a1.107,1.107,0,0,0-.7.91c-.05.54-.07,1.09-.07,1.63s.02,1.09.07,1.63a1.107,1.107,0,0,0,.7.91l3.06,1.22a15.376,15.376,0,0,0,1.78,4.3l-1.29,3.03a1.073,1.073,0,0,0,.15,1.14c.34.42.71.82,1.09,1.21s.79.75,1.21,1.09a1.073,1.073,0,0,0,1.14.15l3.03-1.29a15.376,15.376,0,0,0,4.3,1.78l1.22,3.06a1.107,1.107,0,0,0,.91.7c.54.05,1.09.07,1.63.07s1.09-.02,1.63-.07a1.107,1.107,0,0,0,.91-.7l1.22-3.06a15.376,15.376,0,0,0,4.3-1.78l3.03,1.29a1.073,1.073,0,0,0,1.14-.15c.42-.34.82-.71,1.21-1.09s.75-.79,1.09-1.21a1.073,1.073,0,0,0,.15-1.14l-1.29-3.03a15.376,15.376,0,0,0,1.78-4.3l3.06-1.22a1.107,1.107,0,0,0,.7-.91c.05-.54.07-1.09.07-1.63S48.98,18.91,48.93,18.37ZM30,32A12,12,0,1,1,42,20,12,12,0,0,1,30,32Z" fill="#c4ddf0"/><path d="M30,7A13,13,0,1,0,43,20,13.015,13.015,0,0,0,30,7Zm0,24A11,11,0,1,1,41,20,11.013,11.013,0,0,1,30,31Z" fill="#373737"/><path d="M60,32a2.987,2.987,0,0,0-1.883-2.807L46.3,24.39l2.3-.92a2.115,2.115,0,0,0,1.319-1.742C49.975,21.2,50,20.638,50,20s-.025-1.2-.076-1.718A2.12,2.12,0,0,0,48.6,16.529l-2.591-1.035a16.582,16.582,0,0,0-1.5-3.625L45.6,9.3a2.067,2.067,0,0,0-.3-2.169c-.321-.389-.687-.791-1.166-1.281-.475-.464-.877-.83-1.251-1.139A2.075,2.075,0,0,0,40.7,4.4l-2.569,1.1a16.582,16.582,0,0,0-3.625-1.5L33.47,1.4A2.115,2.115,0,0,0,31.728.077a19.442,19.442,0,0,0-3.446,0A2.12,2.12,0,0,0,26.529,1.4L25.494,3.989a16.582,16.582,0,0,0-3.625,1.5L19.3,4.4a2.069,2.069,0,0,0-2.169.3c-.389.321-.791.687-1.281,1.166-.464.475-.83.877-1.139,1.251A2.075,2.075,0,0,0,14.4,9.3l1.1,2.569a16.582,16.582,0,0,0-1.5,3.625L11.4,16.53a2.115,2.115,0,0,0-1.319,1.742C10.025,18.8,10,19.362,10,20s.025,1.2.076,1.718A2.12,2.12,0,0,0,11.4,23.471l2.591,1.035a16.582,16.582,0,0,0,1.5,3.625L14.4,30.7a2.067,2.067,0,0,0,.3,2.169c.321.389.687.791,1.166,1.281.475.464.877.83,1.251,1.139A2.079,2.079,0,0,0,19.3,35.6l2.569-1.1a16.582,16.582,0,0,0,3.625,1.5L26.53,38.6a2.115,2.115,0,0,0,1.742,1.319C28.8,39.975,29.362,40,30,40s1.2-.025,1.718-.076A2.12,2.12,0,0,0,33.471,38.6l1.035-2.591a16.582,16.582,0,0,0,3.625-1.5L40.7,35.6a2.069,2.069,0,0,0,2.169-.3c.389-.321.791-.687,1.281-1.166.464-.475.83-.877,1.139-1.251A2.075,2.075,0,0,0,45.6,30.7l-1.1-2.569a16.622,16.622,0,0,0,.919-1.937L57.36,31.045a1.032,1.032,0,0,1,0,1.908L30.382,43.924a1.013,1.013,0,0,1-.765,0L2.64,32.955a1.032,1.032,0,0,1,0-1.908l8.74-3.553a1,1,0,1,0-.754-1.853L1.88,29.2a3.033,3.033,0,0,0,0,5.612l1.705.693-1.708.7a3.033,3.033,0,0,0,0,5.612l1.705.693-1.708.7a3.033,3.033,0,0,0,0,5.612L28.862,59.775a2.994,2.994,0,0,0,2.275,0L58.12,48.805a3.032,3.032,0,0,0,0-5.611L56.411,42.5l1.709-.7a3.032,3.032,0,0,0,0-5.611L56.411,35.5l1.709-.7A2.985,2.985,0,0,0,60,32Zm-16.24-.4c-.285.344-.615.707-1.024,1.125-.433.424-.8.754-1.14,1.039,0,0-.106,0-.111.005l-3.031-1.294a1,1,0,0,0-.908.063A14.546,14.546,0,0,1,33.523,34.2a1,1,0,0,0-.688.6l-1.221,3.055a.116.116,0,0,1-.084.076,17.487,17.487,0,0,1-3.07,0,.117.117,0,0,1-.073-.073L27.165,34.8a1,1,0,0,0-.688-.6,14.546,14.546,0,0,1-4.023-1.668,1,1,0,0,0-.908-.063l-3.031,1.294L18.4,33.76c-.344-.285-.707-.615-1.125-1.024-.424-.433-.754-.8-1.039-1.14,0,0,0-.106,0-.111l1.294-3.031a1,1,0,0,0-.063-.908A14.546,14.546,0,0,1,15.8,23.523a1,1,0,0,0-.6-.688l-3.055-1.221a.116.116,0,0,1-.076-.084C12.022,21.072,12,20.571,12,20s.022-1.072.068-1.54a.117.117,0,0,1,.073-.073L15.2,17.165a1,1,0,0,0,.6-.688,14.546,14.546,0,0,1,1.668-4.023,1,1,0,0,0,.063-.908L16.235,8.515l0-.111c.285-.344.615-.707,1.024-1.125.433-.424.8-.754,1.14-1.039,0,0,.106,0,.111,0l3.031,1.294a1,1,0,0,0,.908-.063A14.546,14.546,0,0,1,26.477,5.8a1,1,0,0,0,.688-.6l1.221-3.055a.116.116,0,0,1,.084-.076,17.487,17.487,0,0,1,3.07,0,.117.117,0,0,1,.073.073L32.835,5.2a1,1,0,0,0,.688.6,14.546,14.546,0,0,1,4.023,1.668,1,1,0,0,0,.908.063l3.031-1.294.111,0c.344.285.707.615,1.125,1.024.424.433.754.8,1.039,1.14,0,.005,0,.106.005.111l-1.294,3.031a1,1,0,0,0,.063.908A14.546,14.546,0,0,1,44.2,16.477a1,1,0,0,0,.6.688l3.055,1.221a.116.116,0,0,1,.076.084c.045.458.067.959.067,1.53s-.022,1.072-.068,1.54a.117.117,0,0,1-.073.073L44.8,22.835a1,1,0,0,0-.6.688,14.546,14.546,0,0,1-1.668,4.023,1,1,0,0,0-.063.908l1.294,3.031Zm13.6,13.449a1.032,1.032,0,0,1,0,1.908L30.382,57.924a1.013,1.013,0,0,1-.765,0L2.64,46.955a1.033,1.033,0,0,1,0-1.909l3.605-1.467,22.62,9.2a2.994,2.994,0,0,0,2.275,0l22.621-9.2Zm0-7a1.032,1.032,0,0,1,0,1.908L30.382,50.924a1.013,1.013,0,0,1-.765,0L2.64,39.955a1.033,1.033,0,0,1,0-1.909l3.605-1.467,22.62,9.2a2.994,2.994,0,0,0,2.275,0l22.621-9.2Z" fill="#373737"/><path d="M25.293,19.293l-.246.246A4.989,4.989,0,0,1,30,15a1,1,0,0,0,0-2,7,7,0,0,0-6.98,6.606l-.313-.313a1,1,0,0,0-1.414,1.414l2,2a1,1,0,0,0,1.414,0l2-2a1,1,0,0,0-1.414-1.414Z" fill="#373737"/><path d="M38.707,19.293l-2-2a1,1,0,0,0-1.414,0l-2,2a1,1,0,0,0,1.414,1.414l.246-.246A4.989,4.989,0,0,1,30,25a1,1,0,0,0,0,2,7,7,0,0,0,6.98-6.606l.313.313a1,1,0,0,0,1.414-1.414Z" fill="#373737"/></svg>
